<?xml version="1.0" encoding="utf-8"?>
<!-- Generator: Adobe Illustrator 25.2.3, SVG Export Plug-In . SVG Version: 6.00 Build 0)  -->
<svg version="1.1" id="illustration" xmlns="http://www.w3.org/2000/svg" xmlns:xlink="http://www.w3.org/1999/xlink" x="0px"
	 y="0px" viewBox="0 0 1440 900" style="enable-background:new 0 0 1440 900;" xml:space="preserve">
<style type="text/css">
	.st0{fill:#FFF2C7;}
	.st1{fill:#F0F4FF;}
	.st2{fill:#D7E1FF;}
	.st3{fill:#00AC9C;}
	.st4{fill:#FFBF51;}
	.st5{fill:#FD5822;}
	.st6{fill:#BBCEFF;}
	.st7{fill:#FFFFFF;}
	.st8{fill:#0D5CA9;}
	.st9{fill:#FFA015;}
	.st10{fill:#FBF0EE;}
	.st11{fill:#4C2E50;}
	.st12{fill:#C8F3FA;}
	.st13{fill:#3C273F;}
	.st14{fill:#FFBBB8;}
	.st15{opacity:0.26;}
	.st16{fill:#3E2542;}
	.st17{fill:#FF8F8F;}
	.st18{opacity:0.33;}
	.st19{opacity:0.16;}
	.st20{fill:none;}
	.st21{opacity:0.56;}
	.st22{fill:#FFDCE0;}
</style>
<g>
	<g>
		<g>
			<path class="st0" d="M1385.8,815.9c0,0,150-382.2-108.8-367.6c-258.8,14.5-365.2-31.4-469.2-181.4S636,61.2,493.3,83
				s-55.6,154.8-198.3,299.9S-43.7,583.7,48.2,716.7c57.4,83.1,70.8,94.5,73.8,94.6c3.1,0.1,10.8-0.3,10.8-0.3
				S1388.2,815.9,1385.8,815.9z"/>
		</g>
		<g>
			<path class="st0" d="M78.9,512.2c-1,0-2-0.6-2.4-1.6c-0.6-1.3,0-2.9,1.4-3.5c2.9-1.3,6-2.8,9.4-4.5c1.3-0.7,2.9-0.2,3.6,1.1
				c0.7,1.3,0.2,2.9-1.1,3.6c-3.4,1.8-6.7,3.4-9.7,4.7C79.6,512.1,79.3,512.2,78.9,512.2z M125.8,484c-0.8,0-1.6-0.4-2.2-1.1
				c-0.8-1.2-0.6-2.8,0.6-3.7c2.8-2,5.7-4,8.6-6.1c1.2-0.9,2.8-0.6,3.7,0.6c0.9,1.2,0.6,2.8-0.6,3.7c-2.9,2.1-5.8,4.2-8.6,6.2
				C126.8,483.8,126.3,484,125.8,484z M169.5,451c-0.8,0-1.5-0.3-2.1-1c-0.9-1.1-0.7-2.8,0.4-3.7c2.8-2.2,5.5-4.4,8.3-6.6
				c1.1-0.9,2.8-0.7,3.7,0.4c0.9,1.1,0.7,2.8-0.4,3.7c-2.8,2.2-5.5,4.4-8.3,6.6C170.6,450.8,170.1,451,169.5,451z M1383.6,447.7
				c-0.5,0-1-0.1-1.4-0.4c-2.9-1.8-5.9-3.6-9-5.2c-1.3-0.7-1.8-2.3-1.1-3.6c0.7-1.3,2.3-1.8,3.6-1.1c3.2,1.7,6.3,3.5,9.3,5.4
				c1.2,0.8,1.6,2.4,0.8,3.7C1385.3,447.3,1384.5,447.7,1383.6,447.7z M1223.6,430.2C1223.6,430.2,1223.6,430.2,1223.6,430.2
				c-3.6,0-7.1-0.2-10.6-0.2c-1.5,0-2.6-1.1-2.6-2.6c0-1.4,1.2-2.5,2.6-2.5c0,0,0,0,0,0c3.5,0,7-0.1,10.6,0c1.5,0,2.6,1.2,2.6,2.7
				C1226.2,429,1225,430.2,1223.6,430.2z M1267.6,429.3c-1.4,0-2.6-1-2.6-2.4c0-1.5,1.1-2.6,2.6-2.6c3.5-0.1,7-0.2,10.6-0.3
				c1.5,0,2.7,1.1,2.7,2.6c0,1.5-1.1,2.5-2.6,2.6C1274.7,429.3,1271.2,429.3,1267.6,429.3C1267.7,429.3,1267.7,429.3,1267.6,429.3z
				 M1332.8,428.5c-0.1,0-0.3,0-0.4,0c-5.4-0.9-8.9-1.1-9.6-1.1l-0.4,0c-1.5,0.1-2.7-1-2.8-2.5s1-2.7,2.5-2.8l0.5,0
				c0.1,0,0.2,0,0.2,0c0.2,0,4,0.2,10.4,1.2c1.4,0.2,2.4,1.6,2.2,3C1335.2,427.6,1334.1,428.5,1332.8,428.5z M1169,428.1
				c-0.1,0-0.1,0-0.2,0c-3.5-0.2-7.1-0.5-10.6-0.7c-1.5-0.1-2.5-1.4-2.4-2.8c0.1-1.5,1.4-2.5,2.8-2.4c3.5,0.3,7,0.5,10.5,0.7
				c1.5,0.1,2.6,1.3,2.5,2.8C1171.6,427,1170.4,428.1,1169,428.1z M1114.7,422.6c-0.1,0-0.2,0-0.4,0c-3.5-0.5-7.1-1-10.5-1.6
				c-1.4-0.2-2.4-1.6-2.2-3c0.2-1.4,1.6-2.4,3-2.2c3.4,0.5,6.9,1.1,10.4,1.6c1.4,0.2,2.5,1.5,2.2,3
				C1117.1,421.7,1116,422.6,1114.7,422.6z M211.7,416.2c-0.7,0-1.5-0.3-2-0.9c-0.9-1.1-0.8-2.8,0.3-3.7c2.7-2.3,5.4-4.6,8.1-6.9
				c1.1-1,2.8-0.8,3.7,0.3c1,1.1,0.8,2.8-0.3,3.7c-2.6,2.3-5.3,4.6-8.1,6.9C212.9,416,212.3,416.2,211.7,416.2z M1061.1,412.3
				c-0.2,0-0.4,0-0.6-0.1c-3.4-0.9-6.9-1.8-10.3-2.7c-1.4-0.4-2.2-1.8-1.8-3.3c0.4-1.4,1.8-2.2,3.3-1.8c3.3,0.9,6.8,1.8,10.2,2.7
				c1.4,0.4,2.3,1.8,1.9,3.2C1063.4,411.5,1062.3,412.3,1061.1,412.3z M1009.2,395.6c-0.3,0-0.7-0.1-1-0.2c-3.3-1.3-6.6-2.7-9.8-4.1
				c-1.3-0.6-1.9-2.1-1.4-3.5c0.6-1.3,2.1-1.9,3.5-1.4c3.2,1.4,6.4,2.8,9.7,4.1c1.4,0.5,2,2.1,1.5,3.4
				C1011.2,395,1010.2,395.6,1009.2,395.6z M253.1,380.3c-0.7,0-1.5-0.3-2-0.9c-1-1.1-0.9-2.8,0.2-3.7c2.8-2.5,5.5-4.9,7.9-7.1
				c1.1-1,2.8-0.9,3.7,0.2c1,1.1,0.9,2.8-0.2,3.7c-2.4,2.2-5.1,4.5-7.9,7.1C254.3,380.1,253.7,380.3,253.1,380.3z M960.3,371.3
				c-0.5,0-0.9-0.1-1.4-0.4c-3-1.8-6.1-3.7-9-5.6c-1.2-0.8-1.6-2.4-0.8-3.7c0.8-1.2,2.4-1.6,3.7-0.8c2.9,1.9,5.9,3.7,8.9,5.5
				c1.3,0.8,1.7,2.4,0.9,3.6C962.1,370.9,961.2,371.3,960.3,371.3z M292.4,342.3c-0.6,0-1.2-0.2-1.8-0.7c-1.1-1-1.2-2.6-0.2-3.7
				c2.3-2.6,4.6-5.3,6.9-7.9c0.9-1.1,2.6-1.3,3.7-0.3c1.1,0.9,1.3,2.6,0.3,3.7c-2.3,2.7-4.6,5.4-6.9,8.1
				C293.9,342,293.1,342.3,292.4,342.3z M916,339.6c-0.6,0-1.2-0.2-1.7-0.6c-2.7-2.3-5.4-4.6-8.1-7c-1.1-1-1.2-2.6-0.2-3.7
				c1-1.1,2.6-1.2,3.7-0.2c2.6,2.3,5.3,4.6,7.9,6.9c1.1,0.9,1.3,2.6,0.3,3.7C917.5,339.3,916.8,339.6,916,339.6z M876.7,301.8
				c-0.7,0-1.4-0.3-1.9-0.9c-2.4-2.6-4.7-5.2-7.1-7.9c-1-1.1-0.9-2.8,0.2-3.7c1.1-1,2.8-0.9,3.7,0.2c2.3,2.6,4.7,5.3,7,7.8
				c1,1.1,0.9,2.7-0.2,3.7C878,301.5,877.3,301.8,876.7,301.8z M325.5,298.9c-0.5,0-1-0.1-1.4-0.4c-1.2-0.8-1.6-2.4-0.8-3.7
				c1.9-2.9,3.8-5.9,5.6-8.9c0.8-1.2,2.4-1.6,3.6-0.9c1.2,0.8,1.6,2.4,0.9,3.6c-1.8,3-3.7,6.1-5.7,9
				C327.2,298.5,326.4,298.9,325.5,298.9z M841.9,259.7c-0.8,0-1.6-0.4-2.1-1.1c-2.1-2.8-4.2-5.6-6.3-8.5c-0.9-1.2-0.6-2.8,0.6-3.7
				c1.2-0.9,2.8-0.6,3.7,0.6c2.1,2.9,4.2,5.7,6.3,8.5c0.9,1.2,0.6,2.8-0.5,3.7C843,259.6,842.4,259.7,841.9,259.7z M351.4,251
				c-0.4,0-0.7-0.1-1.1-0.2c-1.3-0.6-1.9-2.2-1.3-3.5c1.4-3.2,2.8-6.4,4.1-9.7c0.6-1.4,2.1-2,3.4-1.4c1.4,0.6,2,2.1,1.4,3.4
				c-1.3,3.3-2.7,6.6-4.2,9.8C353.4,250.4,352.4,251,351.4,251z M810.1,215.3c-0.8,0-1.6-0.4-2.2-1.1c-2.1-2.9-4.1-5.8-6.1-8.6
				c-0.9-1.2-0.6-2.8,0.6-3.7c1.2-0.9,2.8-0.6,3.7,0.6c2,2.8,4.1,5.7,6.2,8.6c0.8,1.2,0.6,2.8-0.6,3.7
				C811.2,215.1,810.6,215.3,810.1,215.3z M370,199.7c-0.2,0-0.5,0-0.8-0.1c-1.4-0.4-2.2-1.9-1.8-3.3c1-3.2,1.9-6.6,2.9-10.1
				c0.4-1.4,1.8-2.2,3.3-1.8c1.4,0.4,2.2,1.8,1.8,3.3c-1,3.5-2,6.9-2.9,10.2C372.2,198.9,371.2,199.7,370,199.7z M777.6,171.4
				c-0.8,0-1.6-0.3-2.1-1c-2.2-2.8-4.4-5.6-6.5-8.3c-0.9-1.1-0.7-2.8,0.4-3.7c1.1-0.9,2.8-0.7,3.7,0.4c2.1,2.7,4.4,5.5,6.6,8.3
				c0.9,1.2,0.7,2.8-0.5,3.7C778.7,171.2,778.2,171.4,777.6,171.4z M384,146.9c-0.2,0-0.4,0-0.7-0.1c-1.4-0.4-2.3-1.8-1.9-3.2
				c1-3.8,1.9-7.2,2.7-10.3c0.4-1.4,1.8-2.2,3.2-1.8c1.4,0.4,2.2,1.8,1.8,3.2c-0.8,3-1.7,6.4-2.7,10.2
				C386.2,146.1,385.1,146.9,384,146.9z M742.6,129.5c-0.7,0-1.4-0.3-2-0.9c-2.4-2.6-4.8-5.2-7.2-7.7c-1-1.1-1-2.7,0.1-3.7
				c1.1-1,2.7-1,3.7,0.1c2.4,2.5,4.8,5.1,7.2,7.8c1,1.1,0.9,2.8-0.2,3.7C743.8,129.3,743.2,129.5,742.6,129.5z M401.5,95.3
				c-0.4,0-0.8-0.1-1.2-0.3c-1.3-0.7-1.8-2.2-1.2-3.5c1.7-3.3,3.4-6.5,5.2-9.4c0.8-1.2,2.4-1.6,3.6-0.9c1.2,0.8,1.6,2.4,0.9,3.6
				c-1.7,2.8-3.4,5.8-5,9C403.4,94.7,402.5,95.3,401.5,95.3z M703.5,91.4c-0.6,0-1.2-0.2-1.7-0.6c-2.7-2.3-5.4-4.5-8.1-6.6
				c-1.1-0.9-1.3-2.6-0.4-3.7c0.9-1.1,2.6-1.3,3.7-0.4c2.7,2.2,5.5,4.4,8.3,6.7c1.1,0.9,1.3,2.6,0.3,3.7
				C705,91.1,704.2,91.4,703.5,91.4z M658.7,60.4c-0.4,0-0.9-0.1-1.3-0.3c-3.1-1.7-6.2-3.3-9.3-4.7c-1.3-0.6-1.9-2.2-1.2-3.5
				c0.6-1.3,2.2-1.9,3.5-1.2c3.2,1.5,6.4,3.2,9.5,4.9c1.3,0.7,1.8,2.3,1.1,3.6C660.5,59.9,659.6,60.4,658.7,60.4z M437.5,55.5
				c-0.9,0-1.8-0.5-2.3-1.3c-0.7-1.3-0.3-2.9,0.9-3.6c3-1.8,6.2-3.5,9.5-5c1.3-0.6,2.9,0,3.5,1.3s0,2.9-1.3,3.5
				c-3.2,1.5-6.2,3.1-9.1,4.8C438.4,55.4,437.9,55.5,437.5,55.5z M607.9,40.8c-0.2,0-0.4,0-0.6-0.1c-3.3-0.8-6.8-1.6-10.2-2.3
				c-1.4-0.3-2.4-1.7-2.1-3.1c0.3-1.4,1.7-2.4,3.1-2.1c3.5,0.7,7,1.5,10.4,2.3c1.4,0.3,2.3,1.8,1.9,3.2
				C610.2,40,609.1,40.8,607.9,40.8z M488.9,38.7c-1.3,0-2.5-0.9-2.6-2.3c-0.2-1.4,0.8-2.8,2.2-2.8c0,0,0,0,0,0
				c3.5-0.9,7.1-1.1,10.5-1.6c1.4-0.2,2.8,0.8,3,2.2c0.2,1.4-0.8,2.8-2.3,2.9c-3.4,0.4-6.9,0.9-10.4,1.5c0,0-0.1,0-0.1,0
				C489.1,38.7,489,38.7,488.9,38.7z M553.9,33.6C553.8,33.6,553.8,33.6,553.9,33.6c-3.5,0-7,0.1-10.5,0.1c-1.5,0-2.7-1.1-2.7-2.5
				c0-1.5,1.1-2.6,2.6-2.6c3.6-0.1,7.2,0,10.7,0.1c1.5,0,2.6,1.1,2.6,2.5C556.5,32.6,555.3,33.6,553.9,33.6z"/>
		</g>
	</g>
	<g>
		<g>
			<path class="st1" d="M1309.4,82.7v406.5c0,25.5-21,45.9-46.5,45.9H699.1c-25.5,0-46.3-20.4-46.3-45.9V82.7
				c0-25.5,20.7-46.4,46.3-46.4H1263C1288.5,36.3,1309.4,57.2,1309.4,82.7z"/>
		</g>
		<g>
			<path class="st2" d="M1309.4,82.7v11.7H652.9V82.7c0-25.5,20.7-46.4,46.3-46.4H1263C1288.5,36.3,1309.4,57.2,1309.4,82.7z"/>
		</g>
		<g>
			<circle class="st3" cx="1198.4" cy="68.2" r="10.6"/>
		</g>
		<g>
			<circle class="st4" cx="1229.8" cy="68.2" r="10.6"/>
		</g>
		<g>
			<circle class="st5" cx="1261.2" cy="68.2" r="10.6"/>
		</g>
		<g>
			<path class="st6" d="M1262.9,375.9H702.7c-5,0-9-4-9-9V133.3c0-5,4-9,9-9h560.2c5,0,9,4,9,9V367
				C1271.8,371.9,1267.8,375.9,1262.9,375.9z"/>
		</g>
		<g>
			<path class="st2" d="M908.3,433.4h-209c-3.1,0-5.7-2.5-5.7-5.7v-9.1c0-3.1,2.5-5.7,5.7-5.7h209c3.1,0,5.7,2.5,5.7,5.7v9.1
				C914,430.9,911.5,433.4,908.3,433.4z"/>
		</g>
		<g>
			<path class="st2" d="M785.5,478.9h-86.1c-3.1,0-5.7-2.5-5.7-5.7v-9.1c0-3.1,2.5-5.7,5.7-5.7h86.1c3.1,0,5.7,2.5,5.7,5.7v9.1
				C791.2,476.3,788.7,478.9,785.5,478.9z"/>
		</g>
		<g>
			<path class="st2" d="M1025.8,433.4h-86.1c-3.1,0-5.7-2.5-5.7-5.7v-9.1c0-3.1,2.5-5.7,5.7-5.7h86.1c3.1,0,5.7,2.5,5.7,5.7v9.1
				C1031.5,430.9,1029,433.4,1025.8,433.4z"/>
		</g>
		<g>
			<path class="st7" d="M934.4,250v-51.3c0-7,7.6-11.4,13.7-7.9l44.7,25.7l44.5,25.6c6.1,3.5,6.1,12.4,0,15.9l-44.6,25.6l-44.6,25.7
				c-6.1,3.5-13.7-0.9-13.7-7.9V250z"/>
		</g>
	</g>
	<g>
		<g>
			<g>
				<path class="st4" d="M478,814H100.3c-18.7,0-33.9-15.2-33.9-33.9V701c0-18.7,15.2-33.9,33.9-33.9H478
					c18.7,0,33.9,15.2,33.9,33.9v79.1C511.9,798.8,496.7,814,478,814z"/>
			</g>
		</g>
		<g>
			<g>
				<path class="st8" d="M490.3,667.1H152.3c-6,0-10.9-4.9-10.9-10.9v-45.9c0-6,4.9-10.9,10.9-10.9h338.1c6,0,10.9,4.9,10.9,10.9
					v45.9C501.3,662.2,496.4,667.1,490.3,667.1z"/>
			</g>
		</g>
		<g>
			<g>
				<path class="st5" d="M468.1,572.4c0,7.4-3,15-7.9,19.9c-4.9,4.9-11.6,8.8-19,8.8H49.5c-7.6,0-14.5-4.1-19.4-9.3
					c-4.6-4.8-7.4-11.8-7.4-19c0-5.8,1.8-11.4,5-15.7c0.8-1.2,1.8-2.5,2.9-3.5c4.9-4.9,11.6-8,19-8h391.8
					C456.1,545.7,468.1,557.7,468.1,572.4z"/>
			</g>
		</g>
		<g>
			<g>
				<rect x="107.6" y="667.8" class="st9" width="64.5" height="145.9"/>
			</g>
		</g>
		<g>
			<g>
				<path class="st10" d="M501.2,653.1H178.6c-2.9,0-5.2-2.3-5.2-5.2v-29.4c0-2.9,2.3-5.2,5.2-5.2h322.6V653.1z"/>
			</g>
		</g>
		<g>
			<path class="st10" d="M491,797.7H209.3c-5.7,0-10.3-4.6-10.3-10.3v-85.2c0-5.7,4.6-10.3,10.3-10.3H491c5.7,0,10.3,4.6,10.3,10.3
				v85.2C501.3,793.1,496.7,797.7,491,797.7z"/>
		</g>
		<g>
			<g>
				<path class="st10" d="M439.4,574.6c0,4.7-2,9.7-5.2,12.8c-3.2,3.1-7.6,5.8-12.5,5.8H30.3c-4.7-6.2-8.2-11.9-8.2-19.1
					c0-5.8,0.6-11.3,3.8-15.5l395.7-0.2C431.4,558.4,439.4,565.2,439.4,574.6z"/>
			</g>
		</g>
		<g>
			<g>
				<path class="st9" d="M384.3,753.6h42V855l-21-21.2l-20.8,21C384.6,854.8,385.4,753.6,384.3,753.6z"/>
			</g>
		</g>
		<g>
			<g>
				<rect x="371.7" y="749.2" class="st11" width="72.3" height="7.9"/>
			</g>
		</g>
		<g>
			<g>
				<path class="st12" d="M91.8,546h377.6c18.7,0,33.9-15.2,33.9-33.9v-40c0-18.7-15.2-33.9-33.9-33.9H91.8
					c-18.7,0-33.9,15.2-33.9,33.9v40C57.9,530.8,73.1,546,91.8,546z"/>
			</g>
		</g>
		<g>
			<path class="st10" d="M78.8,529.7h316.3c5.7,0,10.3-4.6,10.3-10.3v-51.1c0-5.7-4.6-10.3-10.3-10.3H78.8
				c-5.7,0-10.3,4.6-10.3,10.3v51.1C68.5,525.1,73.1,529.7,78.8,529.7z"/>
		</g>
		<g>
			<g>
				<path class="st8" d="M131.4,486.6h26.2V588l-13.1-21.2l-12.9,21C131.5,587.8,132,486.6,131.4,486.6z"/>
			</g>
		</g>
		<g>
			<g>
				<rect x="122.3" y="482.2" class="st11" width="41.4" height="7.9"/>
			</g>
		</g>
	</g>
	<g>
		<g>
			<path class="st6" d="M294.6,134.2l15.8,133.1c0.5,3.8-1.9,7.7-5.7,8.2L113,298.2c-3.8,0.5-7-2.8-7.5-6.6L87.5,139.2
				c-0.5-3.8,2-6.8,5.8-7.3l58.9-7c3.8-0.5,7.5,1.8,7.9,5.7l0.6,5.4c0.5,3.8,3.8,7,7.6,6.6l118.8-14.1
				C291.1,128,294.1,130.4,294.6,134.2z"/>
		</g>
		<g>
			<path class="st1" d="M294.6,134.2l0.4,3.1L90.2,161.6l-2.6-22.4c-0.5-3.8,2-6.8,5.8-7.3l58.9-7c3.8-0.5,7.5,1.8,7.9,5.7l0.6,5.4
				c0.5,3.8,3.8,7,7.6,6.6l118.8-14.1C291.1,128,294.1,130.4,294.6,134.2z"/>
		</g>
		<g>
			<circle class="st3" cx="101.9" cy="141.3" r="4.7"/>
		</g>
		<g>
			<circle class="st4" cx="122" cy="138.9" r="4.7"/>
		</g>
		<g>
			<circle class="st5" cx="142.1" cy="136.5" r="4.7"/>
		</g>
		<g>
			<path class="st1" d="M280.2,227.3l-154.6,18.3c-4.9,0.6-9.4-2.9-10-7.8l-6.8-57.2c-0.6-4.9,2.9-9.4,7.8-10l154.6-18.3
				c4.9-0.6,9.4,2.9,10,7.8l6.8,57.2C288.6,222.3,285.1,226.7,280.2,227.3z"/>
		</g>
		<g>
			<path class="st2" d="M182.9,256.3l-62.6,7.4c-0.9,0.1-1.6-0.5-1.7-1.4l-0.4-3c-0.1-0.9,0.5-1.6,1.4-1.7l62.6-7.4
				c0.9-0.1,1.6,0.5,1.7,1.4l0.4,3C184.3,255.4,183.7,256.2,182.9,256.3z"/>
		</g>
		<g>
			<path class="st2" d="M147.8,274.1l-26,3.1c-0.9,0.1-1.6-0.5-1.7-1.4l-0.4-3c-0.1-0.9,0.5-1.6,1.4-1.7l26-3.1
				c0.9-0.1,1.6,0.5,1.7,1.4l0.4,3C149.3,273.3,148.7,274,147.8,274.1z"/>
		</g>
		<g>
			<path class="st2" d="M217.9,252.1l-26,3.1c-0.9,0.1-1.6-0.5-1.7-1.4l-0.4-3c-0.1-0.9,0.5-1.6,1.4-1.7l26-3.1
				c0.9-0.1,1.6,0.5,1.7,1.4l0.4,3C219.4,251.2,218.7,252,217.9,252.1z"/>
		</g>
		<g>
			<path class="st6" d="M184,200.6l-1.8-15.3c-0.2-2.1,1.9-3.7,3.8-2.9l14.2,6.1l14.2,6.1c2,0.8,2.3,3.5,0.6,4.7l-12.4,9.2
				l-12.4,9.2c-1.7,1.3-4.1,0.2-4.4-1.9L184,200.6z"/>
		</g>
	</g>
	<g>
		<g>
			<g>
				<path class="st4" d="M1225.4,809.1l80.2,4.6c27.8,1.6,51.6-21.1,53.1-50.8l7.4-146.1l-59.6,84.9c-7.8,11.1-20.2,17.3-33.2,16.5
					l-78.7-4.5l28.7,94"/>
			</g>
		</g>
		<g>
			<g>
				<path class="st3" d="M1359.4,712.4l-63.2-3.6l2.1-41.4c1.9-38.4,32.7-67.9,68.8-65.8l0,0c0,0-4.5,90.3-4.8,108
					C1362.2,711.2,1361,712.5,1359.4,712.4z"/>
			</g>
		</g>
		<g>
			<g>
				<polygon class="st3" points="1356,822.1 1362.4,694.4 1359.1,694.3 1352.7,821.9 				"/>
			</g>
		</g>
		<g>
			<path class="st7" d="M1305,675.3c-3.3-32,18.6-60.8,48.6-64.3l0.2,1.8c-29.1,3.4-50.2,31.3-47.1,62.4L1305,675.3z"/>
		</g>
		<g>
			<path class="st0" d="M1298.7,806c-0.1,0-0.1,0-0.2,0c-1.5-0.1-2.5-1.4-2.4-2.9c0.3-3.7,1-7.4,2.1-10.9c0.4-1.4,1.9-2.2,3.3-1.7
				c1.4,0.4,2.2,1.9,1.7,3.3c-1,3.2-1.6,6.5-1.9,9.8C1301.2,805,1300,806,1298.7,806z M1308.8,780.2c-0.6,0-1.2-0.2-1.7-0.6
				c-1.1-0.9-1.3-2.6-0.4-3.7c2.3-2.9,5-5.6,8-7.8c1.2-0.9,2.8-0.7,3.7,0.5c0.9,1.2,0.7,2.8-0.5,3.7c-2.6,2-5,4.4-7.1,7
				C1310.4,779.8,1309.6,780.2,1308.8,780.2z M1332.1,765.1c-1.2,0-2.3-0.8-2.6-2c-0.3-1.4,0.5-2.8,1.9-3.2
				c3.6-0.9,7.4-1.3,11.2-1.2c1.5,0,2.6,1.2,2.6,2.7c0,1.4-1.2,2.6-2.6,2.6c0,0,0,0-0.1,0c-3.3-0.1-6.6,0.3-9.8,1.1
				C1332.5,765.1,1332.3,765.1,1332.1,765.1z"/>
		</g>
		<g>
			<path class="st13" d="M1273.8,791c1.6-1.7,3.1-3.6,4.5-5.3C1276.9,787.5,1275.4,789.3,1273.8,791z"/>
		</g>
		<g>
			<path class="st13" d="M1292.6,743.9c0,0.6,0,1.2,0,1.8c-0.1,2-0.2,3.9-0.4,5.8c0,0.1,0,0.3-0.1,0.4c-1.4,11.6-5.7,22.4-12.1,31.5
				c-0.1,0.1-0.1,0.2-0.2,0.3h-132.5c-5.7,7-12.3,12.6-19.5,16.7h134.7c0.5-0.3,1.1-0.6,1.6-0.9c-0.5,0.4-1,0.9-1.6,1.2
				c-11,7.5-24.3,12-38.6,12H704.2c-5.8,0-11.4-0.9-16.8-2.6c0,0,0,0,0,0c-7.9-1.8-15.3-5.2-21.8-9.6c-0.1-0.1-0.2-0.1-0.3-0.2
				c-6.6-4.5-12.4-10.2-17-16.7c-0.1-0.1-0.1-0.2-0.2-0.3c-0.7-0.9-1.3-1.9-1.9-2.8c-5.4-8.5-8.9-18.2-10.2-28.6
				c0-0.1,0-0.3-0.1-0.4c-0.3-2.6-0.4-5.2-0.4-7.8c0-3.2,0.2-6.3,0.6-9.4c0,0,0,0,0,0c1.6-11.8,6.2-22.6,13-31.7
				c0-0.1,0.1-0.1,0.1-0.2c1.9-2.6,4.1-5,6.4-7.3c3.8-3.8,8-7.1,12.5-9.9c0.1-0.1,0.2,0,0.3-0.1c9.7-5.9,21-9.8,33.1-9.8h0
				c0.9,0,1.7,0,2.6,0h519.6c13.1,0,25.4,3.5,35.8,9.9c0.1,0.1,0.2,0,0.3,0.1c5.3,3.3,10.1,7.2,14.3,11.7c1.6,1.8,3.1,3.6,4.6,5.5
				c6.9,9.1,11.3,20,13,31.8v0c0,0.1,0.1,0.1,0.1,0.2c0.2,1.5,0.4,2.9,0.5,4.4c0,0.1,0,0.1,0,0.2c0.1,0.8,0.1,1.6,0.1,2.3
				c0,0.4,0,0.8,0,1.3C1292.6,743.1,1292.6,743.5,1292.6,743.9z"/>
		</g>
		<g>
			<path class="st11" d="M648.9,803.9c0.1,0.1,71.7,22.2,148.2-11.3c76.6-33.6-38.5-114.1-38.5-114.1l-28.5-23.8l-52.2,36.9
				l-36.2,51.7L648.9,803.9z"/>
		</g>
		<g>
			<g>
				<path class="st4" d="M1061.4,777.2h16.6c-0.6,29.7,71.6,34.5,99.5,35.1l134.7-1.4l-79.1-56.2c-10.6-7.9-69.3-2.6-69-16.4
					l-42.2-45.9l-72,51.6"/>
			</g>
		</g>
		<g>
			<path class="st3" d="M458.9,443c0,0,15.9-29.6,32.7-24.3c16.7,5.3,78,15,78,15s86.8,147.2,110.6,150.7
				c23.8,3.5,57.7,59.5,30.4,92.1c-27.3,32.6-61.7,127.3-61.7,127.3s-134.4-51.3-167-139.2s14.2-171,14.2-171L458.9,443z"/>
		</g>
		<g>
			<path class="st8" d="M549,277.4l-20.9,95c0,0-23.4,14.5-29.5-22.9c-6.2-37.5-2.2-60.4,21.6-77.6c4.2-3,9.9-6,16.6-8.7
				c24.9-9.9,63.3-14.6,85.3,5.5c5.6,5.1,10.1,11.8,13.1,20.3C653.3,340.7,549,277.4,549,277.4z"/>
		</g>
		<g>
			<path class="st14" d="M631.7,334.4c0-31.5-25.5-57-57-57c-23.8,0-44.2,14.6-52.7,35.4c-4.4-3.2-8.9-4.3-11,1.5
				c-4.4,12.2-5,23.6,7.2,27.5c0.9,6.7,2.9,13.1,5.9,18.9l-32.5,58.1c52.9,43.8,78,15,78,15l8.8-42.4l0,0
				C608.2,389.4,631.7,364.7,631.7,334.4z"/>
		</g>
		<g class="st15">
			<g>
				<path class="st12" d="M622.1,268.8C575.2,245.8,507,289.2,507,289.2l29.8-25.9C561.7,253.4,600.1,248.7,622.1,268.8z"/>
			</g>
		</g>
		<g>
			<path class="st8" d="M522.6,298c-8.1,8.6-1,15.7,7.8,23.6c2.3,2,3.5,6.5,5.5,5.8c5.2-2,19.7-22.5,27-33.1c2.4-3.5,7-4.6,10.7-2.7
				c13.4,7,43.6,21.5,54.9,17c14.7-5.9-35.3-51.7-65.2-38.8C547.8,276.5,530.3,289.8,522.6,298z"/>
		</g>
		<g>
			<path class="st8" d="M525.5,206c9.1,20.9,12.1,45.5,12.7,50.5c-1.1,0.2-5.7,3.5-21.6,19.5c-34.1,34.1-66.2,36.2-85.1,22
				c-22.2-16.7-25.9-56,7.5-92.3C487.1,153.4,512.5,176.1,525.5,206z"/>
		</g>
		<g>
			<path class="st8" d="M538.3,257.5c0,0,0-0.3-0.1-0.9C538.9,256.4,538.3,257.5,538.3,257.5z"/>
		</g>
		<g>
			<path class="st4" d="M499.9,288.3L499.9,288.3c-1.7-2.2-1.3-5.4,0.9-7.1l35.9-28.2c2.2-1.7,5.4-1.3,7.1,0.9h0
				c1.7,2.2,1.3,5.4-0.9,7.1L507,289.2C504.8,290.9,501.6,290.5,499.9,288.3z"/>
		</g>
		<g>
			<g>
				<path class="st7" d="M520.2,365.9c8.6,0,15.6-7,15.6-15.6s-7-15.6-15.6-15.6v3.5c6.7,0,12.1,5.4,12.1,12.1
					c0,6.7-5.4,12.1-12.1,12.1s-12.1-5.4-12.1-12.1c0-4,2.4-8,5.8-10.3l-2.9-2.3c-4.3,2.9-6.4,7.4-6.4,12.6
					C504.6,358.8,511.6,365.9,520.2,365.9z"/>
			</g>
		</g>
		<g>
			<g>
				<path class="st16" d="M619.5,360.5L619.5,360.5c1.6,0.9,3.6,0.2,4.4-1.3l4.1-7.8c0.9-1.6,0.2-3.6-1.3-4.4l0,0
					c-1.6-0.9-3.6-0.2-4.4,1.3l-4.1,7.8C617.3,357.7,618,359.6,619.5,360.5z"/>
			</g>
		</g>
		<g>
			<g>
				<path class="st16" d="M585.3,348.1L585.3,348.1c1.6,0.9,3.6,0.2,4.4-1.3l4.1-7.8c0.9-1.6,0.2-3.6-1.3-4.4l0,0
					c-1.6-0.9-3.6-0.2-4.4,1.3l-4.1,7.8C583.1,345.2,583.7,347.2,585.3,348.1z"/>
			</g>
		</g>
		<g>
			<g>
				<path class="st11" d="M584.4,375.9l0.6-1.7c-0.1,0-10.5-3.9-10-12.3l-1.8-0.1C572.6,371.6,583.9,375.8,584.4,375.9z"/>
			</g>
		</g>
		<g>
			<g>
				<polygon class="st11" points="603.5,367 607.6,355.3 605.9,354.7 602.6,364.4 597.8,361.4 596.9,362.9 				"/>
			</g>
		</g>
		<g>
			<g>
				<circle class="st17" cx="576.3" cy="350.8" r="5.1"/>
			</g>
		</g>
		<g>
			<g>
				<path class="st17" d="M616.1,371.9c0.3,0.1,0.5,0.2,0.8,0.2h0c2.1-1.8,3.9-4.3,5.5-6.8c-0.5-1.4-1.6-2.5-3.1-3
					c-2.7-0.9-5.5,0.5-6.4,3.2C612,368.1,613.4,371,616.1,371.9z"/>
			</g>
		</g>
		<g>
			<g>
				<path class="st8" d="M619.8,333.1l9.3,7.2c2.2,1.7,5.4,1.3,7.1-0.9h0c1.7-2.2,1.3-5.4-0.9-7.1L626,325c-2.2-1.7-5.4-1.3-7.1,0.9
					l0,0C617.2,328.2,617.6,331.4,619.8,333.1z"/>
			</g>
		</g>
		<g>
			<g>
				<path class="st3" d="M604.8,358.6c1-11.9,11.5-20.8,23.5-19.8c11.9,1,20.8,11.5,19.8,23.5c-1,11.9-11.5,20.8-23.5,19.8
					C612.7,381,603.8,370.5,604.8,358.6z M608.3,358.9c-0.8,10,6.6,18.8,16.6,19.6s18.8-6.6,19.6-16.6c0.8-10-6.6-18.8-16.6-19.6
					S609.1,348.9,608.3,358.9z"/>
			</g>
		</g>
		<g>
			<g>
				<path class="st8" d="M588.1,323.4l11.9,3.4c2.9,0.8,5.9-0.7,6.7-3.4l0,0c0.9-2.7-0.8-5.5-3.6-6.3l-11.9-3.4
					c-2.9-0.8-5.9,0.7-6.7,3.4v0C583.6,319.8,585.2,322.6,588.1,323.4z"/>
			</g>
		</g>
		<g>
			<g>
				<path class="st3" d="M559.2,338.2c1-11.9,11.5-20.8,23.5-19.8c11.9,1,20.8,11.5,19.8,23.5c-1,11.9-11.5,20.8-23.5,19.8
					S558.2,350.1,559.2,338.2z M562.7,338.5c-0.8,10,6.6,18.8,16.6,19.6s18.8-6.6,19.6-16.6c0.8-10-6.6-18.8-16.6-19.6
					C572.4,321.1,563.6,328.5,562.7,338.5z"/>
			</g>
		</g>
		<g>
			<g>
				<path class="st3" d="M609.1,355.3c0.8-1.7,0.8-3.6,0.1-5.4c-0.7-1.7-2-3.1-3.7-3.9c-3.5-1.6-7.7,0.1-9.2,3.6l3.2,1.4
					c0.8-1.8,2.8-2.6,4.6-1.8c0.9,0.4,1.5,1.1,1.9,1.9c0.3,0.9,0.3,1.8-0.1,2.7L609.1,355.3z"/>
			</g>
		</g>
		<g>
			<path class="st17" d="M572,401.1c0.6,0.1,3.8,0.2,4.3,0.3c1.9-4.1,0.6-7.1,2.3-9.1c0,0-0.4,0-0.4,0c0,0-10.9-3.5-13.3-6.8
				C562.5,382.2,564.7,399.1,572,401.1z"/>
		</g>
		<g>
			<g>
				<circle class="st7" cx="623.2" cy="358.5" r="1.9"/>
			</g>
		</g>
		<g>
			<g>
				<circle class="st7" cx="588.9" cy="346.5" r="1.9"/>
			</g>
		</g>
		<g>
			<g>
				<path class="st11" d="M527.2,323.4l1.3-1.2c-0.3-0.3-7.5-7.5-13.5-4.4l0.8,1.6C520.6,316.8,527.1,323.3,527.2,323.4z"/>
			</g>
		</g>
		<g>
			<g>
				<path class="st11" d="M579,392.4l0.1-1.8c-0.1,0-9.1-0.6-14.1-6.5l-1.4,1.1C569.1,391.8,578.6,392.3,579,392.4z"/>
			</g>
		</g>
		<g>
			<g>
				<path class="st3" d="M1225,809.4l1.2-67.4l38.9,0.8c36.1,0.7,64.8,32.5,64.1,70.9v0c0,0-84.9-1.7-101.5-1.4
					C1226.2,812.4,1224.9,811.1,1225,809.4z"/>
			</g>
		</g>
		<g>
			<g>
				
					<rect x="1121.9" y="809.1" transform="matrix(1 -3.966060e-03 3.966060e-03 1 -3.2067 4.694)" class="st3" width="120" height="3.5"/>
			</g>
		</g>
		<g>
			<path class="st7" d="M1318.2,804.6c-2.1-15.6-9.9-29.2-22-38.3c-11.1-8.3-24.6-11.8-38-9.7l-0.3-1.7c13.9-2.1,27.9,1.5,39.4,10.1
				c12.5,9.4,20.6,23.4,22.7,39.5L1318.2,804.6z"/>
		</g>
		<g>
			<path class="st0" d="M1165.9,807.7c-1.4,0-2.6-1.2-2.6-2.6c-0.1-3.4-0.5-6.7-1.2-9.9c-0.3-1.4,0.5-2.8,2-3.2
				c1.4-0.3,2.8,0.5,3.2,2c0.8,3.6,1.3,7.3,1.4,11C1168.6,806.5,1167.4,807.7,1165.9,807.7C1165.9,807.7,1165.9,807.7,1165.9,807.7z
				 M1157.6,781.2c-0.8,0-1.7-0.4-2.2-1.1c-1.9-2.8-4.1-5.3-6.5-7.5c-1.1-1-1.2-2.7-0.2-3.7c1-1.1,2.6-1.2,3.7-0.2
				c2.8,2.5,5.2,5.3,7.4,8.4c0.8,1.2,0.5,2.8-0.7,3.7C1158.6,781.1,1158.1,781.2,1157.6,781.2z M1135.5,764.5c-0.3,0-0.6,0-0.8-0.1
				c-3.1-1-6.4-1.7-9.7-1.9c-1.5-0.1-2.6-1.3-2.5-2.8c0.1-1.5,1.4-2.6,2.8-2.5c3.7,0.2,7.5,0.9,11,2.1c1.4,0.5,2.1,2,1.7,3.3
				C1137.6,763.8,1136.6,764.5,1135.5,764.5z"/>
		</g>
		<g>
			<path class="st11" d="M648.5,607.3c-6.9-3.1-30.8-43.3-31.8-45l1.5-0.9c6.8,11.5,25.7,41.9,31,44.3L648.5,607.3z"/>
		</g>
		<g>
			<path class="st12" d="M713.6,572.4l-132.2,75.8l150.9,25.1l42.1-106.5h-40.1C727.1,566.8,719.9,568.7,713.6,572.4z"/>
		</g>
		<g class="st18">
			<g>
				<path class="st8" d="M728.9,584.8l-105.3,68.7l118,19.5l34.7-93h-31.3C739.2,580,733.7,581.7,728.9,584.8z"/>
			</g>
		</g>
		<g>
			<path class="st8" d="M776,555.4l-43.7,117.8l148.2-87.9c1.3-0.8,2.4-2,2.9-3.4l30-75.4c2.3-5.8-3.5-11.5-9.2-9.1l-121,50.4
				C779.9,549.3,777.3,552,776,555.4z"/>
		</g>
		<g>
			<path class="st14" d="M440.1,618.3l8.7-44.7l200.7,39l-5.3,73l-170.7-21.2C451.1,661.6,435.8,640.4,440.1,618.3z"/>
		</g>
		<g>
			<path class="st3" d="M446.7,662L446.7,662c-23.4-5.7-37.8-29.2-32.2-52.6L450.6,460c5.7-23.4,26.6-32.3,50-26.7l0,0
				c23.4,5.7,40.5,23.7,34.8,47.2l-36.1,149.4C493.7,653.3,470.1,667.7,446.7,662z"/>
		</g>
		<g>
			<path class="st3" d="M414.3,611.3L414.3,611.3c4.6-23.6,27.5-39.1,51.1-34.5l157.9,30.7l-16.7,85.6l-157.9-30.7
				C425.2,657.9,409.7,635,414.3,611.3z"/>
		</g>
		<g>
			<g>
				<path class="st14" d="M633.8,612.3l10.3,73.3l69.2-9c6.3-0.8,10.6-6.5,9.8-12.7l-8.7-62.1L633.8,612.3z"/>
			</g>
			<g>
				<path class="st14" d="M689.3,604.6l2.5,17.6l32.3-4.2c4.9-0.6,8.4-5.1,7.7-10v0c-0.7-4.9-5.2-8.3-10.2-7.6L689.3,604.6z"/>
			</g>
			<g>
				<path class="st14" d="M689.1,628.2l1.2,8.3c0.4,2.6,2.8,4.4,5.4,4l33.4-4.4c4.8-0.6,8.2-5,7.6-9.8l0-0.3
					c-0.7-4.8-5.1-8.1-10-7.5l-33.4,4.4C690.5,623.2,688.7,625.6,689.1,628.2z"/>
			</g>
			<g>
				<path class="st14" d="M690.2,646.8l1.2,8.3c0.4,2.6,2.8,4.4,5.4,4l33.4-4.4c4.8-0.6,8.2-5,7.6-9.8l0-0.3
					c-0.7-4.8-5.1-8.1-10-7.5l-33.4,4.4C691.6,641.9,689.8,644.2,690.2,646.8z"/>
			</g>
			<g>
				<path class="st14" d="M689.4,666.2l1.2,8.3c0.4,2.6,2.8,4.4,5.4,4l33.4-4.4c4.8-0.6,8.2-5,7.6-9.8l0-0.3
					c-0.7-4.8-5.1-8.1-10-7.5l-33.4,4.4C690.8,661.2,689,663.6,689.4,666.2z"/>
			</g>
			<g>
				<path class="st14" d="M630.1,620.9l8.2,17.7l49.8-22.2c4.9-2.2,7-7.8,4.8-12.6l-0.1-0.3c-2.2-4.8-8-7-12.8-4.8L630.1,620.9z"/>
			</g>
			<g>
				
					<rect x="696.8" y="619.7" transform="matrix(0.9924 -0.1231 0.1231 0.9924 -70.9598 92.3536)" class="st11" width="30.6" height="1.8"/>
			</g>
			<g>
				
					<rect x="699.2" y="637.6" transform="matrix(0.9919 -0.1269 0.1269 0.9919 -75.2552 95.8162)" class="st11" width="30.2" height="1.8"/>
			</g>
			<g>
				
					<rect x="700.1" y="656.3" transform="matrix(0.9935 -0.1138 0.1138 0.9935 -70.1337 85.7892)" class="st11" width="32.3" height="1.8"/>
			</g>
		</g>
		<g>
			<polygon class="st11" points="623.1,608.4 509.2,586.2 523.5,525.6 525.2,526 511.3,584.8 623.5,606.7 			"/>
		</g>
		<g>
			
				<rect x="543.2" y="619.5" transform="matrix(0.1909 -0.9816 0.9816 0.1909 -228.2393 1085.088)" class="st11" width="1.8" height="123"/>
		</g>
		<g>
			<path class="st11" d="M1015.7,626.7c0,3-0.2,5.9-0.6,8.9c-0.8,6.1-2.4,12-4.7,17.6c-3.3,8-8.1,15.4-14.3,21.7
				c-3.7,3.7-7.8,7.1-12.4,10c-0.8,0.5-1.6,1-2.4,1.4l-28.1,16.2l-8.5,4.9l-46.4,26.8l-30.5,17.6l-55,31.7l-2.5,1.5l0,0l-10.8,6.2
				c-0.7,0.4-1.5,0.8-2.2,1.2c0,0,0,0,0,0c0,0-0.1,0-0.1,0c-4.5,2.4-9.2,4.2-13.9,5.5c0,0,0,0,0,0c-4.2,1.2-8.5,1.9-12.8,2.2
				c-3.5,0.3-7.1,0.3-10.5,0c-14.6-1.1-28.7-6.9-40-16.7c-5.6-4.9-10.4-10.7-14.3-17.5c-2.7-4.6-4.7-9.4-6.2-14.3
				c-1.8-5.8-2.7-11.7-3-17.6c0-0.8,0-1.6,0-2.4c0-10.1,2.2-20.1,6.5-29.3c3-6.4,7-12.3,11.9-17.6c3.4-3.7,7.4-7.1,11.7-10
				c1.4-1,2.8-1.9,4.3-2.7l12-7l20.9-12l30.5-17.6l55-31.7l29-16.7l34.5-19.9c19.5-11.3,42.2-11.9,61.4-3.7c0,0,0.1,0,0.1,0
				c11.4,4.9,21.6,12.9,29.1,23.6c1.2,1.7,2.3,3.5,3.4,5.3c2.2,3.7,3.9,7.6,5.3,11.5C1014.4,611.3,1015.7,619,1015.7,626.7z"/>
		</g>
		<g>
			<path class="st11" d="M1162.5,751.5c0,0.1-0.1,0.3-0.1,0.4c-1.9,9.1-5.6,18.1-11.1,26.4c-1.2,1.8-2.4,3.5-3.7,5.1
				c-0.1,0.1-0.2,0.2-0.2,0.3c-5.7,7-12.3,12.6-19.5,16.7c-0.1,0.1-0.3,0.2-0.4,0.2c-9.3,5.2-19.6,8-29.8,8c-9.9,0-19.8-2.6-28.6-8
				c-0.1-0.1-0.3-0.2-0.4-0.2c-1.5-0.9-2.9-1.9-4.3-2.9l-18.3-13.8l-0.4-0.3l-41.8-31.5l-0.5-0.4l-22.9-17.2l0,0l-35.6-26.8
				l-6.5-4.9l-0.2-0.2L915,685.1l-0.3-0.2l-1.1-0.8c-3.6-2.7-6.9-5.8-9.7-9.2c-5.3-6.3-9.2-13.7-11.6-21.6c0,0,0,0,0-0.1
				c-1.7-5.5-2.7-11.3-3-17.2c0-0.1,0-0.3,0-0.4c-0.5-10.5,1.3-21.2,5.5-31.4c0-0.1,0.1-0.2,0.1-0.3c1.9-4.5,4.2-8.9,7-13.1
				c0.8-1.2,1.7-2.5,2.6-3.6c0.1-0.1,0.1-0.1,0.2-0.2c13.1-17.2,32.1-26.5,50.9-26.5c6.2,0,12.4,1,18.3,3.1c0,0,0.1,0,0.1,0
				c5.2,1.8,10.2,4.5,14.9,8l20.4,15.3l9.5,7.2l0.1,0.1l12.9,9.7l0.4,0.3l41.8,31.4l0.6,0.4l22.9,17.2l0.1,0.1l28.8,21.6l13.3,10
				c0,0,0.1,0,0.1,0.1c0.1,0.1,0.2,0.1,0.2,0.2c6.2,4.8,11.3,10.6,15.1,17.3c0,0.1,0.1,0.1,0.1,0.2c5.5,9.5,8,20.4,8.9,31.7v0
				C1164,740,1163.7,745.7,1162.5,751.5z"/>
		</g>
		<g>
			<path class="st8" d="M533.5,254l-1.1-2.4c0.7-0.3,16.5-7.4,47.8-5.2c14.2,1,21.4-6.5,24.4-11.1c3.9-6,4.9-13.6,2.4-18.4
				c-1.5-2.8-4-4.4-7.4-4.5l0.1-2.6c4.3,0.1,7.7,2.2,9.7,5.9c3,5.7,2,14.2-2.5,21.1c-5.6,8.6-15.4,13.1-26.7,12.3
				C549.4,246.9,533.6,253.9,533.5,254z"/>
		</g>
		<g>
			<path class="st8" d="M515.8,376.4c-22-3.1-35.2-10.8-39.3-22.9c-8.5-25.3,25.6-60.1,27.1-61.5l1.9,1.9
				c-0.3,0.3-34.4,35.1-26.4,58.8c3.7,11.1,16.2,18.2,37.1,21.2L515.8,376.4z"/>
		</g>
		<g class="st19">
			<g>
				<line class="st20" x1="878" y1="587.1" x2="849" y2="603.8"/>
			</g>
			<g>
				<polygon class="st10" points="1032.2,603.8 849,603.8 878,587.1 1009.3,587.1 1018.9,594.1 				"/>
			</g>
			<g>
				<polygon class="st10" points="1097.5,653.2 763.5,653.2 794.1,635.5 1074.6,635.5 				"/>
			</g>
			<g>
				<path class="st10" d="M1278.9,702.5H693.7l10.2-17.6h556.1C1267.3,689.3,1273.7,695.5,1278.9,702.5z"/>
			</g>
			<g>
				<path class="st10" d="M1163.2,747.2c0,2.6-1.4,5.6-1.7,8.2l-491.8-3.5l8.2-17.6l486,3.4C1164.4,740.3,1163.2,744,1163.2,747.2z"
					/>
			</g>
			<g>
				<path class="st10" d="M1147.3,783.6c-5.7,7-12.3,12.6-19.5,16.7H650.2l6.4-16.7H1147.3z"/>
			</g>
			<g>
				<path class="st10" d="M1272.5,792.3c0.3-0.3,0.7-0.7,1-1C1273.2,791.6,1272.8,792,1272.5,792.3c-2.6,2.6-5.4,5.3-8.4,7.2
					C1267.1,797.3,1269.9,794.9,1272.5,792.3z"/>
			</g>
			<g>
				<path class="st10" d="M1280.1,783.6c-0.5,0.6-1.1,1.3-1.7,2c0.5-0.7,1-1.3,1.5-2H1280.1z"/>
			</g>
		</g>
		<g class="st15">
			<g>
				<path class="st12" d="M525.5,206c-4.3-0.6-8.8-2.4-13.6-5.7c-36.1-25.4-89.9,50.1-89,77.1c0.3,8.4,3.9,15.2,8.7,20.6
					c-22.2-16.7-25.9-56,7.5-92.3C487.1,153.4,512.5,176.1,525.5,206z"/>
			</g>
		</g>
	</g>
	<g>
		<g>
			<g>
				<path class="st5" d="M1293.7,420.3c-28.3-17.8-65.6-9.3-83.4,19c-17.8,28.3-9.3,65.6,19,83.4c28.3,17.8,65.6,9.3,83.4-19
					C1330.4,475.4,1321.9,438.1,1293.7,420.3z M1296.4,493.5c-12.2,19.3-37.7,25.1-57,13c-19.3-12.1-25.1-37.6-13-57
					c12.2-19.3,37.7-25.1,57-13C1302.8,448.7,1308.6,474.2,1296.4,493.5z"/>
			</g>
		</g>
		<g class="st21">
			<circle class="st22" cx="1261.5" cy="471.5" r="41.3"/>
		</g>
		<g>
			<path class="st7" d="M1236.8,457.7c-0.6,0-1.3-0.2-1.9-0.5c-1.6-1-2.1-3.2-1.1-4.9c4.5-7.1,11.5-12.1,19.7-14
				c8.2-1.9,16.7-0.4,23.8,4.1c1.6,1,2.1,3.2,1.1,4.9c-1,1.6-3.2,2.1-4.9,1.1c-5.5-3.5-12.1-4.6-18.5-3.2
				c-6.4,1.5-11.8,5.3-15.3,10.8C1239.2,457.1,1238,457.7,1236.8,457.7z"/>
		</g>
		<g>
			
				<rect x="1195.1" y="503.6" transform="matrix(0.8464 0.5326 -0.5326 0.8464 479.6975 -558.2578)" class="st5" width="24.8" height="97.5"/>
		</g>
		<g>
			<path class="st4" d="M1177,616.3l-14.1-8.9c-4.1-2.6-5.4-8-2.8-12.2l39.9-63.4c2.6-4.1,8-5.4,12.2-2.8l14.1,8.9
				c4.1,2.6,5.4,8,2.8,12.2l-39.9,63.4C1186.6,617.7,1181.1,618.9,1177,616.3z"/>
		</g>
		<g>
			<circle class="st7" cx="1231.5" cy="468.1" r="4"/>
		</g>
	</g>
</g>
</svg>
