<?xml version="1.0" encoding="utf-8"?>
<!-- Generator: Adobe Illustrator 25.2.3, SVG Export Plug-In . SVG Version: 6.00 Build 0)  -->
<svg version="1.1" id="icon" xmlns="http://www.w3.org/2000/svg" xmlns:xlink="http://www.w3.org/1999/xlink" x="0px" y="0px"
	 viewBox="0 0 512 512" style="enable-background:new 0 0 512 512;" xml:space="preserve">
<style type="text/css">
	.st0{fill:#0DA875;}
</style>
<path class="st0" d="M473.6,108.2c-0.3-16.3-12.8-28.4-27.4-30.9c-52.2-7.2-44.4,61-17.8,68.4v34.6c0.1,11.4-2.6,22.6-7.9,32.7
	c-6.7,12.5-10,27.1-11.6,36.6c-0.4,2.4-2.6,4-5,3.6c-1-0.2-2-0.7-2.6-1.5c-24.4-28.3-54.7-28.5-68.7-26.7c-4.6,0.6-9.2-1.3-12.1-4.9
	c-8.2-10-19.7-17-26.5-20.5c-3.4-1.8-5.5-5.3-5.5-9.1c-0.1-3.5-0.2-7.8,2.5-10.5c7.2-8.1,12.5-19.8,12.5-19.8s23.4,1.3,26.7-24.9
	S312,108.3,312,108.3c-1-22-5.6-38.2-11.6-50.2c-18.3-36.4-70.4-36.4-88.8,0c-6,12-10.6,28.2-11.6,50.2c0,0-21.5,0.7-18.2,26.9
	s26.7,24.9,26.7,24.9s5.3,11.7,12.5,19.8c2.7,2.7,2.6,7,2.5,10.5c0,3.8-2.1,7.3-5.5,9.1c-6.7,3.5-18.3,10.5-26.5,20.5
	c-2.9,3.6-7.4,5.5-12,5c-13.9-1.8-44.3-1.6-68.7,26.7c-1.6,1.8-4.3,2.1-6.1,0.5c-0.8-0.7-1.3-1.6-1.5-2.6
	c-1.6-9.5-4.8-23.9-11.4-36.3c-5.4-10.2-8.1-21.5-8.1-32.9v-34.6c0,0,20.1-5.9,20.8-36.1c0-0.3,0-0.5,0-0.8
	c0.8-32.9-39-43.2-59.2-19.5c-4.2,5.4-6.5,12-6.7,18.9l-8.2,199.1c-0.5,10.6,6.8,19.9,17.1,22.1c15.7,3.2,41.7,7.1,77.6,7.9
	c7.4,0.1,14,4.6,16.9,11.5c8.2,19.4,23.9,60.1,26.3,92.4l1,32.1c0.1,4.5,3.8,8.1,8.3,8.1c39.1-0.1,117.9,0.1,157.1,0
	c4.5,0,8.2-3.6,8.3-8.1l1-32.1c2.4-32.2,18.1-72.9,26.3-92.4c2.9-6.8,9.5-11.3,16.9-11.5c36-0.7,61.9-4.6,77.6-7.9
	c10.3-2.2,17.6-11.5,17.1-22.1L473.6,108.2z"/>
</svg>
