<?xml version="1.0" encoding="utf-8"?>
<!-- Generator: Adobe Illustrator 25.2.3, SVG Export Plug-In . SVG Version: 6.00 Build 0)  -->
<svg version="1.1" id="Layer_1" xmlns="http://www.w3.org/2000/svg" xmlns:xlink="http://www.w3.org/1999/xlink" x="0px" y="0px"
	 viewBox="0 0 800 800" style="enable-background:new 0 0 800 800;" xml:space="preserve">
<style type="text/css">
	.st0{fill:#FFFFFF;}
	.st1{fill:#E6F7EB;}
	.st2{fill:#83EEB0;}
	.st3{fill:#C1C1C1;}
	.st4{fill:#282828;}
</style>
<circle class="st0" cx="401" cy="400" r="398.7"/>
<g id="Layer_1_1_">
</g>
<g id="Layer_2_1_">
	<g>
		<path class="st1" d="M642.5,303.6c1,55.1-5.6,212.5-107.1,308.2c-3.7,3.5-5,9-3.1,13.7c12.9,30.1,1.7,98.6-5.1,133
			c-1.9,9.5,7.2,17.3,16.3,14.2c63.7-21.6,252.9-107.6,255-362c0-2.9-1-5.9-2.9-8.2c-55.1-64.3-107.9-96.5-134.9-110.2
			C652.1,288.1,642.2,294.3,642.5,303.6z"/>
		<path class="st2" d="M667.9,325.8c26.4,15.9,64.7,43.8,104.8,89.7c-1.9,99.9-34.5,182.5-97,245.4c-41.2,41.6-87,66-119.3,79.4
			c2.4-14.6,4.7-31.3,6.1-47.9c2.3-28.9,1.2-51.4-3.6-68c44.1-44.1,75.3-103.2,93.1-175.9C663.8,400.9,667.3,356.4,667.9,325.8
			 M654.9,291c-6.5,0-12.6,5.4-12.4,12.7c1,55.1-5.6,212.5-107.1,308.2c-3.7,3.5-5,9-3.1,13.7c12.9,30.1,1.7,98.6-5.1,133
			c-1.7,7.9,4.6,14.9,12.2,14.9c1.3,0,2.7-0.3,4.1-0.6c63.7-21.6,252.9-107.6,255-362c0-2.9-1-5.9-2.9-8.2
			c-55.1-64.3-107.9-96.5-134.9-110.2C658.6,291.4,656.7,291,654.9,291L654.9,291z"/>
	</g>
	<path class="st2" d="M352.7,638c-15.9-25-18.8-50.7-7.8-70.7c11.4-20.8,35.7-32.2,68.7-32.2c66.6,0,103.5,36,138.3,76.2l-19.3,16.8
		c-33.2-38.2-63-67.4-119-67.4c-23.1,0-39.5,6.7-46.1,18.8c-6.3,11.5-3.8,27.8,6.9,44.7L352.7,638z"/>
	<path class="st2" d="M665.4,323.9c-99.8-49.3-178.3-104.5-179.1-105.2l14.7-20.9c0.8,0.5,77.8,54.7,175.6,103.1L665.4,323.9z"/>
	<path class="st2" d="M465.2,789c-7,0-14.2-0.6-21.4-2l5.1-25.1c25.5,5.1,53.3-3.6,75.6-10.6c5.1-1.7,10-3.1,14.6-4.5l6.9,24.7
		c-4.2,1.2-8.8,2.7-13.8,4.2C513.6,781.6,489.8,789,465.2,789z"/>
	<g id="Layer_3">
	</g>
	<path class="st3" d="M596.7,450.2c-0.8,2.9-1.5,5.8-2.3,8.7l-4.2,12.4c2.2-0.9,4.4-1.8,6.7-2.7v-3.5
		C596.6,460,596.6,455.1,596.7,450.2z M400.9,0.2c-45.1,0-88.5,7.6-129,21.3c23.1,7.8,43,22.2,57.6,41.8c12.9,1.4,25.7,3.7,38.3,6.8
		c39.1,9.5,75.1,25.9,107.5,48.9c28.8-23.4,67.1-32.4,104-23.6c64.4,15.6,104.1,80.6,88.5,145c-1.3,5.3-2.8,10.2-4.7,15.2l1.2,0.5
		c52.5,21.5,97.6,55.7,134.2,102C777.5,157,607.5,0.2,400.9,0.2z M606.5,369.2c5.8-25.5,13.2-47,20.4-64
		c-7.6,6.1-15.9,11.4-24.8,15.6C604.8,337,606.2,353.1,606.5,369.2z"/>
	<path class="st4" d="M574.3,115.6c-36.9-9-74,4.1-97.6,30.5c-4.6,5.1-8.7,10.8-12.2,16.9c-4.5,7.8-7.9,16.5-10.1,25.7
		c-3.6,14.9-3.6,29.7-0.6,43.7c7.2,0.1,14.3,1,21.6,2.8c38.4,9.4,66.2,39.8,73.9,76.2c2.8,0,5.6,0,8.3-0.3c7-0.5,13.8-1.7,20.5-3.6
		c33.3-9.5,60.6-36.1,69.4-72.1C660.4,182.1,627.6,128.4,574.3,115.6z M189.5,224.4c23.4-28.8,62-43.3,100.6-33.9
		c7.3,1.8,14.1,4.2,20.5,7.4c9-11.1,15.8-24.3,19.3-39.2c4.5-18.4,3.5-36.9-1.9-53.7c-2.4-7.7-5.9-15.1-10.1-21.9
		c-13.3-21.4-34.6-37.8-61.1-44.2c-7.2-1.8-14.3-2.6-21.5-2.8c-39.6-0.8-76.2,22.3-92.5,58.7c-2.4,5.5-4.5,11.3-5.9,17.3
		c-1.5,6.1-2.3,12.2-2.7,18.2c-0.4,8.2,0.1,16.3,1.7,24.1C141.7,184.3,161.5,210.5,189.5,224.4z M269.2,441.5
		c21.5-16.4,28.2-54.3,24.7-92.1c-2-23.2-7.9-46.1-16.4-64c-7.4-15.6-16.8-27.2-27.4-31.5c-2.2-0.9-4.5-1.4-6.9-1.8
		c-3.5-0.4-7.2-0.4-11.1,0.3c-47.4,7-122.6,84.7-111.8,115.4C140.5,425.7,229.1,472,269.2,441.5z M217.2,335.7
		c0.4-1.8,1-3.6,1.8-5.3c-0.5,13.4,8.3,25.7,21.9,29.1c13.6,3.3,27.2-3.6,32.7-15.8c-0.1,1.8-0.4,3.7-0.8,5.5
		c-3.7,15.4-19.2,24.8-34.6,21.1C222.8,366.4,213.5,351,217.2,335.7z M484.1,624.9c-0.6-1.4-1.2-2.8-1.8-4.1
		c-0.3-0.4-0.4-0.9-0.6-1.3c-0.5-1-0.9-1.9-1.4-2.8c0,0,0,0,0-0.1s-0.1-0.1-0.1-0.3c-0.3-0.5-0.5-1-0.9-1.7l0,0
		c0-0.1-0.1-0.1-0.1-0.3c-0.4-0.6-0.8-1.4-1.2-2c-0.4-0.5-0.6-1.2-1-1.7c0-0.1-0.1-0.1-0.1-0.3c0,0,0,0,0-0.1
		c-0.3-0.4-0.4-0.6-0.6-1l-0.1-0.1c-0.8-1.2-1.5-2.3-2.3-3.5c-0.3-0.4-0.5-0.6-0.6-0.9c-0.5-0.8-1.2-1.5-1.7-2.3
		c-1.3-1.7-2.6-3.2-4-4.6c-0.9-1-1.8-1.9-2.8-2.8c-0.1-0.1-0.3-0.3-0.4-0.4l0,0c-0.9-0.9-1.8-1.7-2.7-2.4c-0.1,0-0.1-0.1-0.3-0.3
		c-0.8-0.6-1.5-1.3-2.3-1.9c-0.1-0.1-0.3-0.3-0.4-0.3c-0.6-0.5-1.3-1-1.9-1.4c-0.3-0.1-0.4-0.3-0.6-0.4c-0.6-0.4-1.3-0.9-1.9-1.3
		c-0.3-0.1-0.4-0.3-0.6-0.4c-0.8-0.5-1.7-1-2.4-1.5c-9.4-5.4-19.9-8.8-31.5-11.1c-5.9-1.2-11.9-1.9-18.3-2.6
		c-1.5-0.1-3.2-0.3-4.9-0.4c-2-0.1-4.1-0.3-6.1-0.4l0,0c-1.9-0.1-3.8-0.3-5.8-0.3c-0.6,0-1.2,0-1.8-0.1c-1.4,0-2.8-0.1-4.4-0.1
		c-0.6,0-1.2,0-1.8,0c-1.9,0-4-0.1-5.9-0.1c-7.2-0.1-14.6-0.3-22.3-0.4c-5.8-0.1-11.7-0.1-17.7-0.3c-4-0.1-8.1-0.3-12.3-0.4
		c-6.1-0.3-12.6-0.5-19-0.9c-0.1,0-0.1,0-0.3,0l0,0c-2.3-0.1-4.7-0.4-7.2-0.5c-4.1-0.3-8.2-0.6-12.4-1c-2.2-0.3-4.4-0.4-6.5-0.6
		c-0.3,0-0.5,0-0.8-0.1c-1.9-0.3-3.8-0.5-5.8-0.6l0,0c-0.1,0-0.4,0-0.5-0.1c-0.3,0-0.5,0-0.6-0.1l0,0c-1.8-0.3-3.6-0.5-5.4-0.8
		c-0.5-0.1-1-0.1-1.5-0.3c-1.8-0.3-3.5-0.5-5.3-0.8c-0.5-0.1-1.2-0.1-1.7-0.3c-1.8-0.3-3.5-0.6-5.3-0.9c-0.5-0.1-1.2-0.3-1.7-0.3
		c-1.8-0.4-3.6-0.6-5.4-1c-0.5-0.1-1-0.3-1.5-0.3c-2-0.4-4-0.8-6-1.3c-0.3-0.1-0.6-0.1-0.9-0.3c-2.3-0.5-4.7-1-7.2-1.7
		c-2.4-0.5-4.9-1.2-7.2-1.8c-0.4-0.1-0.6-0.1-1-0.3l0,0c-1.2-0.3-2.2-0.6-3.3-0.9c-0.3,0-0.5-0.1-0.6-0.1l0,0
		c-0.6-0.1-1.3-0.4-1.9-0.5l0,0c-0.1,0-0.3-0.1-0.4-0.1c-0.6-0.1-1.2-0.4-1.8-0.5l0,0c-1.7-0.5-3.3-0.9-5-1.4
		c-0.9-0.3-1.8-0.5-2.7-0.8c-1.5-0.5-3.1-0.9-4.6-1.4c-1-0.3-1.9-0.6-2.9-0.9c-1.4-0.5-2.9-1-4.4-1.5c-1-0.4-2-0.8-3.1-1
		c-1.4-0.5-2.9-1-4.4-1.5c-1-0.4-2-0.8-3.1-1.2c-1.4-0.5-2.9-1.2-4.4-1.7c-1-0.4-2-0.8-3.2-1.3c-1.4-0.6-2.9-1.2-4.5-1.8
		c-1-0.4-2-0.9-3.1-1.3c-1.5-0.6-3.1-1.3-4.6-2c-1-0.4-1.9-0.9-2.9-1.3c-1.7-0.8-3.5-1.5-5.1-2.4c-0.9-0.4-1.7-0.8-2.6-1.2
		c-2.6-1.3-5.1-2.6-7.7-3.8c-1.4-0.8-2.8-1.4-4.2-2.2c-0.5-0.3-0.9-0.5-1.4-0.8c-0.9-0.5-1.8-1-2.7-1.4c-0.5-0.3-1-0.6-1.5-0.9
		c-0.8-0.5-1.7-0.9-2.4-1.4c-0.5-0.4-1.2-0.6-1.7-1c-0.8-0.5-1.5-0.9-2.3-1.4c-0.5-0.4-1.2-0.6-1.7-1c-0.8-0.4-1.4-0.9-2.2-1.3
		c-0.5-0.4-1.2-0.8-1.7-1c-0.6-0.4-1.4-0.9-2-1.3c-0.5-0.4-1.2-0.8-1.7-1.2c-0.6-0.4-1.4-0.9-2-1.3c-0.5-0.4-1.2-0.8-1.7-1.2
		c-0.6-0.4-1.3-0.9-1.9-1.3c-0.5-0.4-1.2-0.8-1.7-1.2c-0.6-0.4-1.3-0.9-1.9-1.3c-0.5-0.4-1.2-0.8-1.7-1.2c-0.6-0.4-1.3-0.9-1.8-1.3
		c-0.5-0.4-1.2-0.9-1.7-1.3c-0.6-0.5-1.2-0.9-1.8-1.4c-0.5-0.4-1-0.9-1.7-1.3c-0.5-0.5-1.2-0.9-1.7-1.4c-0.5-0.4-1-0.9-1.5-1.3
		c-0.5-0.5-1.2-0.9-1.7-1.4c-0.5-0.4-1-0.9-1.5-1.3c-0.5-0.5-1-0.9-1.5-1.4c-0.5-0.5-1-0.9-1.5-1.4c-0.5-0.5-1-0.9-1.5-1.4
		c-0.5-0.5-1-0.9-1.5-1.4c-0.5-0.5-1-0.9-1.5-1.4c-0.5-0.5-1-0.9-1.4-1.4c-0.5-0.5-1-0.9-1.5-1.4c-0.5-0.5-1-0.9-1.4-1.4
		c-0.5-0.5-0.9-0.9-1.4-1.4c-0.5-0.5-1-1-1.4-1.4c-0.5-0.5-0.9-0.9-1.4-1.4c-0.5-0.5-0.9-1-1.4-1.4c-0.4-0.5-0.9-0.9-1.3-1.4
		c-0.5-0.5-0.9-1-1.4-1.5c-0.4-0.5-0.9-0.9-1.3-1.4c-0.5-0.5-0.9-1-1.4-1.5c-0.4-0.5-0.8-0.9-1.3-1.4c-0.5-0.5-0.9-1-1.3-1.5
		c-0.4-0.5-0.8-0.9-1.2-1.4c-0.4-0.5-0.9-1-1.3-1.5c-0.4-0.5-0.8-0.9-1.2-1.4c-0.4-0.5-0.9-1-1.3-1.5c-0.4-0.5-0.8-0.9-1.2-1.4
		c-0.4-0.5-0.9-1-1.3-1.7c-0.4-0.5-0.8-0.9-1-1.4c-0.4-0.5-0.9-1.2-1.3-1.7s-0.6-0.9-1-1.4s-0.8-1.2-1.3-1.7c-0.4-0.5-0.6-0.9-1-1.4
		c-0.4-0.5-0.8-1.2-1.2-1.7c-0.3-0.4-0.6-0.9-0.9-1.3c-0.4-0.5-0.8-1.2-1.2-1.8c-0.3-0.4-0.6-0.9-0.9-1.3c-0.4-0.6-0.8-1.2-1.2-1.8
		c-0.3-0.4-0.6-0.9-0.9-1.3c-0.4-0.6-0.8-1.2-1.2-1.8c-0.3-0.4-0.5-0.9-0.8-1.3c-0.4-0.6-0.8-1.2-1.2-1.8c-0.3-0.4-0.5-0.9-0.8-1.3
		c-0.4-0.6-0.8-1.3-1.2-1.8c-0.3-0.4-0.5-0.9-0.8-1.3c-0.4-0.6-0.8-1.3-1-1.9c-0.3-0.4-0.5-0.8-0.8-1.3c-0.4-0.6-0.8-1.3-1-1.9
		c-0.3-0.4-0.5-0.8-0.6-1.2c-0.4-0.6-0.6-1.3-1-1.9c-0.3-0.4-0.4-0.8-0.6-1.2c-0.4-0.6-0.6-1.3-1-1.9c-0.3-0.4-0.4-0.8-0.6-1.2
		c-0.4-0.6-0.6-1.3-1-1.9c-0.1-0.4-0.4-0.8-0.5-1.2c-0.4-0.6-0.6-1.4-1-2c-0.1-0.4-0.4-0.8-0.5-1.2c-0.4-0.6-0.6-1.4-1-2
		c-0.1-0.4-0.4-0.8-0.5-1c-0.4-0.6-0.6-1.4-0.9-2c-0.1-0.4-0.3-0.6-0.5-1c-0.3-0.8-0.6-1.4-0.9-2.2c-0.1-0.4-0.3-0.6-0.4-1
		c-0.3-0.8-0.6-1.4-0.9-2.2c-0.1-0.4-0.3-0.6-0.4-1c-0.3-0.6-0.5-1.4-0.9-2v-0.1c-0.1-0.3-0.3-0.6-0.4-0.9c-0.3-0.8-0.6-1.5-0.9-2.3
		c-0.1-0.3-0.3-0.6-0.4-0.9c-0.3-0.8-0.5-1.5-0.9-2.3c-0.1-0.3-0.3-0.5-0.3-0.9c-0.3-0.8-0.5-1.5-0.9-2.3c-0.1-0.3-0.1-0.5-0.3-0.8
		c-0.3-0.8-0.5-1.5-0.8-2.3c-0.1-0.3-0.1-0.5-0.3-0.8c-0.3-0.8-0.5-1.5-0.8-2.4c-0.1-0.3-0.1-0.5-0.3-0.8c-0.3-0.8-0.5-1.5-0.8-2.4
		c-0.1-0.3-0.1-0.5-0.3-0.8c-0.3-0.8-0.5-1.7-0.8-2.4c0-0.3-0.1-0.4-0.1-0.6c-0.3-0.9-0.5-1.7-0.8-2.6c0-0.3-0.1-0.4-0.1-0.6
		c-0.3-0.9-0.5-1.7-0.8-2.6c0-0.1-0.1-0.4-0.1-0.5c-0.3-0.9-0.5-1.7-0.6-2.6c0-0.1-0.1-0.3-0.1-0.5c-0.3-0.9-0.5-1.8-0.6-2.6
		c0-0.1-0.1-0.3-0.1-0.4c-0.3-0.9-0.4-1.8-0.6-2.7c0-0.1-0.1-0.3-0.1-0.4c-0.3-0.9-0.4-1.8-0.6-2.7c0-0.1,0-0.3-0.1-0.4
		c-0.3-0.9-0.4-1.8-0.6-2.7c0-0.1,0-0.1,0-0.3c-0.3-0.9-0.4-1.8-0.6-2.8c0-0.1,0-0.1,0-0.3c-0.3-0.9-0.4-1.9-0.5-2.8V349
		c-0.1-0.9-0.4-1.9-0.5-2.8V346c-0.1-0.9-0.4-1.9-0.5-2.8l0,0c-0.1-1-0.4-1.9-0.5-2.9c-0.1-0.5-0.1-1-0.3-1.5
		c-1.8,12.8-2.9,26.1-3.6,40C2.4,386,2.3,393.4,2.3,401c0.4,179.5,119,331.1,282.1,381.3c18.8,5.8,38.2,10.2,58,13.2
		c19.5,2.9,39.5,4.5,59.7,4.5c26.8,0,52.9-2.7,78.3-7.7c2-0.4,4.1-0.8,6.1-1.3c0,0,1.5-6.4,5.1-17.4
		C506.5,704.6,484.1,625,484.1,624.9C484.1,625,484.1,624.9,484.1,624.9z M498.7,317c-3.2-2.3-6.5-4.1-9.7-5.3
		c-2.3-0.9-4.6-1.4-7-1.7c-11.4-1-25.1,5-38.7,15.5c-15.6,12-31.4,29.8-43.8,49.4c-20.2,31.9-31.8,68.8-20.1,93.1
		c21.8,45.3,121.7,44.8,166.1,2.6c0.9-0.9,1.8-1.9,2.4-2.9c2.7-4,4.5-9.5,5.3-15.9C557.7,413.7,530.6,339.9,498.7,317z M473.9,397.7
		c-3.7,15.4-19.2,24.8-34.6,21.1s-24.8-19.2-21.1-34.6c0.4-1.8,1-3.6,1.8-5.3c-0.5,13.4,8.3,25.7,21.9,29.1
		c13.6,3.3,27.2-3.6,32.7-15.8C474.7,394,474.4,395.9,473.9,397.7z"/>
</g>
</svg>
