<?xml version="1.0" encoding="utf-8"?>
<!-- Generator: Adobe Illustrator 25.2.3, SVG Export Plug-In . SVG Version: 6.00 Build 0)  -->
<svg version="1.1" id="icon" xmlns="http://www.w3.org/2000/svg" xmlns:xlink="http://www.w3.org/1999/xlink" x="0px" y="0px"
	 viewBox="0 0 512 512" style="enable-background:new 0 0 512 512;" xml:space="preserve">
<style type="text/css">
	.st0{fill:#0DA875;}
</style>
<path class="st0" d="M100.5,402.8c26,36.3,62.4,63.8,104.3,79c5.8,2.1,12.2-0.9,14.3-6.7c0.4-1.1,0.6-2.2,0.7-3.3l1-19.4
	c0.3-6.5-2.4-12.8-7.5-17c-14.9-12.1-30.8-23.2-47.3-33c-25.3-15-48.7-33.1-69.5-53.9c-2.3-2.3-6-2.3-8.3,0
	c-1.1,1.1-1.7,2.6-1.7,4.2C85.6,370.5,90,388.3,100.5,402.8z"/>
<path class="st0" d="M86.4,185.3v110.2c0,7,2.4,13.8,6.9,19.2c16.8,20.5,43.5,46.8,83.1,70.4c12.9,7.7,24.3,15.3,34.6,22.9
	c3.4,2.5,8.3,1.8,10.8-1.7c0.9-1.2,1.4-2.7,1.5-4.2l2.2-44.1c0.7-13.8-5.8-26.9-17-34.8c-24.7-17.4-66.6-48.1-73.7-61.7
	c-6.1-11.6-5.9-28.8-4.8-40.8c0.5-5.2,5.1-8.9,10.2-8.5c1.2,0.1,2.4,0.5,3.5,1c18.6,9.8,38,18.1,57.9,24.8
	c15.9,5.3,27.4,19.2,29.6,35.8l3.5,26.2c1.9,14.8,19.7,15.9,31.3,13.1c6.1-1.6,10.7-6.8,11.5-13.1l3.5-26.2
	c2.2-16.6,13.7-30.5,29.6-35.8c19.9-6.7,39.3-15,58-24.8c4.6-2.4,10.3-0.7,12.7,3.9c0.6,1.1,0.9,2.3,1,3.5c1.1,12,1.3,29.2-4.8,40.8
	c-7.1,13.6-49.1,44.4-73.7,61.7c-11.3,7.9-17.7,21.1-17,34.8l2.2,44.1c0.2,4.3,3.8,7.6,8.1,7.4c1.5-0.1,3-0.6,4.2-1.5
	c10.2-7.5,21.7-15.2,34.6-22.9c39.6-23.6,66.3-49.9,83.1-70.4c4.5-5.4,6.9-12.2,6.9-19.2V185.3c-0.3-8.1-1.3-16.3-2.9-24.2
	C381-26.7,99.2-8.2,86.4,185.3z"/>
<path class="st0" d="M415.6,348.6c-20.8,20.8-44.2,38.9-69.5,53.9c-16.6,9.8-32.4,20.8-47.3,33c-5,4.1-7.8,10.4-7.5,17l1,19.4
	c0.3,6.2,5.5,10.9,11.7,10.6c1.1-0.1,2.2-0.3,3.3-0.7c62.2-23.3,119.6-76.6,118.4-123.3v-5.8c0-3.2-2.6-5.9-5.9-5.9
	C418.2,346.9,416.7,347.5,415.6,348.6z"/>
</svg>
