<?xml version="1.0" encoding="utf-8"?>
<!-- Generator: Adobe Illustrator 25.2.3, SVG Export Plug-In . SVG Version: 6.00 Build 0)  -->
<svg version="1.1" id="icon" xmlns="http://www.w3.org/2000/svg" xmlns:xlink="http://www.w3.org/1999/xlink" x="0px" y="0px"
	 viewBox="0 0 512 512" style="enable-background:new 0 0 512 512;" xml:space="preserve">
<style type="text/css">
	.st0{fill:#0DA875;}
</style>
<path class="st0" d="M36.1,167.4h141.2c4.1,0,7.7-2.9,8.5-7l2.4-12.2c1.6-8.2,8.8-14.1,17.2-14.1h101c8.4,0,15.6,5.9,17.2,14.1
	l2.4,12.2c0.8,4.1,4.4,7,8.5,7h141.2c5.9,0,10.6-4.8,10.6-10.6c0-0.4,0-0.8-0.1-1.2c-7.1-54.4-43.9-92.2-87.5-92.9
	c-71.6,0-214.2,0-285.8,0c-43.6,0.6-80.5,38.7-87.5,92.9c-0.7,5.8,3.5,11.1,9.3,11.8C35.3,167.4,35.7,167.4,36.1,167.4z"/>
<path class="st0" d="M256.7,244.3c6.4,0,11.6-5.2,11.6-11.6l0,0v-24.8c24.5-12.2,16.2-49.4-11.6-49.6c-27.7,0.2-36,37.4-11.6,49.6
	v24.8C245.2,239.1,250.3,244.3,256.7,244.3L256.7,244.3z"/>
<path class="st0" d="M50.3,449.3c102.9-0.1,308.6,0.1,411.5,0c14.1,0,25.6-11.5,25.6-25.6c0,0,0,0,0,0V198.4
	c0-5.9-4.7-10.6-10.6-10.6c0,0,0,0,0,0H342.1c-4.8,0-8.7,3.9-8.7,8.7c0,0.6,0.1,1.1,0.2,1.7l4.5,22.6c1.2,6.2-1,12.6-5.8,16.7
	c-21.9,18.7-45.2,35.7-69.6,51c-4.1,2.6-9.4,2.6-13.5,0c-24.4-15.3-47.6-32.3-69.6-51c-4.8-4.1-7-10.5-5.8-16.7l4.5-22.6
	c0.9-4.7-2.1-9.3-6.8-10.2c-0.6-0.1-1.1-0.2-1.7-0.2H35.3c-5.9,0-10.6,4.7-10.6,10.6l0,0v225.3C24.7,437.9,36.1,449.3,50.3,449.3z
	 M387.2,394.8l44.7-43.4c3.9-3.8,10.1-3.7,13.8,0.2c1.8,1.8,2.8,4.3,2.8,6.8v43.4c0,5.4-4.4,9.8-9.8,9.8H394c-5.4,0-9.8-4.4-9.8-9.8
	C384.2,399.2,385.3,396.7,387.2,394.8L387.2,394.8z M63.5,358.4c0-5.4,4.4-9.8,9.8-9.8c2.5,0,5,1,6.8,2.8l44.7,43.4
	c3.9,3.8,4,10,0.2,13.8c-1.8,1.9-4.4,3-7,3H73.3c-5.4,0-9.8-4.4-9.8-9.8V358.4z"/>
</svg>
